<?xml version="1.0" encoding="UTF-8" standalone="no"?>
<svg width="1200px" height="600px" viewBox="0 0 1200 600" version="1.1" xmlns="http://www.w3.org/2000/svg" xmlns:xlink="http://www.w3.org/1999/xlink" xmlns:sketch="http://www.bohemiancoding.com/sketch/ns">
    <!-- Generator: Sketch 3.3.3 (12072) - http://www.bohemiancoding.com/sketch -->
    <title>Artboard 1</title>
    <desc>Created with Sketch.</desc>
    <defs></defs>
    <g id="Page-1" stroke="none" stroke-width="1" fill="none" fill-rule="evenodd" sketch:type="MSPage">
        <g id="Artboard-1" sketch:type="MSArtboardGroup">
            <g id="Browser" sketch:type="MSLayerGroup" transform="translate(1.000000, 42.000000)">
                <rect id="Rectangle-1" fill="#E0E0E0" sketch:type="MSShapeGroup" x="0" y="0" width="864" height="518" rx="8"></rect>
                <rect id="Rectangle-14" fill="#FFFFFF" sketch:type="MSShapeGroup" x="0" y="31" width="864" height="411"></rect>
                <rect id="Rectangle-18" fill="#42A5F5" sketch:type="MSShapeGroup" x="90" y="117" width="685" height="104"></rect>
                <rect id="Rectangle-15" fill="#FFFFFF" sketch:type="MSShapeGroup" x="0" y="430" width="685" height="92" rx="8"></rect>
                <rect id="Rectangle-16" fill="#E0E0E0" sketch:type="MSShapeGroup" x="0" y="30" width="864" height="49"></rect>
                <rect id="Rectangle-17" fill="#FFFFFF" sketch:type="MSShapeGroup" x="93" y="43" width="736" height="25"></rect>
                <rect id="Rectangle-19-Copy" fill="#D8D8D8" sketch:type="MSShapeGroup" x="90" y="379" width="373" height="92"></rect>
                <rect id="Rectangle-19" fill="#D8D8D8" sketch:type="MSShapeGroup" x="90" y="254" width="373" height="92"></rect>
                <rect id="Rectangle-21" fill="#9E9E9E" sketch:type="MSShapeGroup" x="486" y="254" width="223" height="217"></rect>
                <path d="M64.5,48.5 L64.5,63.5 L49.5,56 L64.5,48.5 Z" id="Triangle-1-Copy" fill="#9E9E9E" sketch:type="MSShapeGroup" transform="translate(57.000000, 56.000000) rotate(-180.000000) translate(-57.000000, -56.000000) "></path>
                <path d="M41.5,48.5 L41.5,63.5 L26.5,56 L41.5,48.5 Z" id="Triangle-1" fill="#9E9E9E" sketch:type="MSShapeGroup"></path>
                <circle id="Oval-1" fill="#F44336" sketch:type="MSShapeGroup" cx="24.5" cy="13.5" r="7.5"></circle>
                <circle id="Oval-1-Copy" fill="#FFD600" sketch:type="MSShapeGroup" cx="49.5" cy="13.5" r="7.5"></circle>
                <circle id="Oval-1-Copy-2" fill="#00C853" sketch:type="MSShapeGroup" cx="74.5" cy="13.5" r="7.5"></circle>
            </g>
            <g id="Editor" sketch:type="MSLayerGroup" transform="translate(674.000000, 168.000000)">
                <g id="Group" sketch:type="MSShapeGroup">
                    <rect id="Rectangle-1" fill="#424242" x="0" y="0" width="541" height="468" rx="8"></rect>
                    <circle id="Oval-1" fill="#F44336" cx="24.5" cy="18.5" r="7.5"></circle>
                    <circle id="Oval-1-Copy" fill="#FFD600" cx="49.5" cy="18.5" r="7.5"></circle>
                    <circle id="Oval-1-Copy-2" fill="#00C853" cx="74.5" cy="18.5" r="7.5"></circle>
                </g>
                <rect id="Rectangle-2" fill="#616161" sketch:type="MSShapeGroup" x="0" y="38" width="526" height="402"></rect>
                <rect id="Rectangle-3" fill="#EF5350" sketch:type="MSShapeGroup" x="28" y="59" width="94" height="21"></rect>
                <rect id="Rectangle-3-Copy" fill="#EF5350" sketch:type="MSShapeGroup" x="28" y="325" width="94" height="21"></rect>
                <rect id="Rectangle-3-Copy-2" fill="#82B1FF" sketch:type="MSShapeGroup" x="82" y="97" width="94" height="21"></rect>
                <rect id="Rectangle-3-Copy-8" fill="#82B1FF" sketch:type="MSShapeGroup" x="82" y="363" width="94" height="21"></rect>
                <rect id="Rectangle-3-Copy-4" fill="#FFF176" sketch:type="MSShapeGroup" x="139" y="135" width="387" height="21"></rect>
                <rect id="Rectangle-3-Copy-7" fill="#FFF176" sketch:type="MSShapeGroup" x="139" y="249" width="387" height="21"></rect>
                <rect id="Rectangle-3-Copy-5" fill="#FFF176" sketch:type="MSShapeGroup" x="139" y="173" width="299" height="21"></rect>
                <rect id="Rectangle-3-Copy-9" fill="#FFF176" sketch:type="MSShapeGroup" x="141" y="401" width="328" height="21"></rect>
                <rect id="Rectangle-3-Copy-6" fill="#FFF176" sketch:type="MSShapeGroup" x="139" y="211" width="248" height="21"></rect>
                <rect id="Rectangle-3-Copy-3" fill="#82B1FF" sketch:type="MSShapeGroup" x="82" y="287" width="94" height="21"></rect>
            </g>
        </g>
    </g>
</svg>
